<svg xmlns="http://www.w3.org/2000/svg" width="48" height="48" viewBox="0 0 48 48">
  <g id="instagram_bra" transform="translate(-468.5 -8787.5)">
    <rect id="Retângulo_18404" data-name="Retângulo 18404" width="48" height="48" transform="translate(468.5 8787.5)" fill="#0abb98" opacity="0"/>
    <g id="Grupo_14828" data-name="Grupo 14828" transform="translate(17780 -1889.295)">
      <path id="Elipse_2375" data-name="Elipse 2375" d="M17,1A16,16,0,0,0,5.686,28.314,16,16,0,0,0,28.314,5.686,15.9,15.9,0,0,0,17,1m0-1A17,17,0,1,1,0,17,17,17,0,0,1,17,0Z" transform="translate(-17304 10683.295)" fill="#fff"/>
      <path id="Icon_awesome-instagram" data-name="Icon awesome-instagram" d="M8.154,6.211a4.182,4.182,0,1,0,4.182,4.182A4.175,4.175,0,0,0,8.154,6.211Zm0,6.9a2.719,2.719,0,1,1,2.719-2.719A2.724,2.724,0,0,1,8.154,13.112ZM13.482,6.04a.975.975,0,1,1-.975-.975A.973.973,0,0,1,13.482,6.04Zm2.77.99a4.827,4.827,0,0,0-1.318-3.418A4.859,4.859,0,0,0,11.517,2.3c-1.347-.076-5.383-.076-6.73,0A4.852,4.852,0,0,0,1.37,3.609,4.843,4.843,0,0,0,.052,7.027c-.076,1.347-.076,5.383,0,6.73A4.827,4.827,0,0,0,1.37,17.174a4.865,4.865,0,0,0,3.418,1.318c1.347.076,5.383.076,6.73,0a4.827,4.827,0,0,0,3.418-1.318,4.859,4.859,0,0,0,1.318-3.418c.076-1.347.076-5.379,0-6.726ZM14.512,15.2a2.753,2.753,0,0,1-1.55,1.55c-1.074.426-3.621.328-4.808.328s-3.738.095-4.808-.328A2.753,2.753,0,0,1,1.8,15.2c-.426-1.074-.328-3.621-.328-4.808S1.373,6.655,1.8,5.585a2.753,2.753,0,0,1,1.55-1.55c1.074-.426,3.621-.328,4.808-.328s3.738-.095,4.808.328a2.753,2.753,0,0,1,1.55,1.55c.426,1.074.328,3.621.328,4.808S14.938,14.131,14.512,15.2Z" transform="translate(-17294.994 10690.057)" fill="#fff"/>
    </g>
  </g>
</svg>
