<svg xmlns="http://www.w3.org/2000/svg" width="48" height="48" viewBox="0 0 48 48">
  <g id="twitter_bra" transform="translate(-468.5 -8867.5)">
    <rect id="Retângulo_18405" data-name="Retângulo 18405" width="48" height="48" transform="translate(468.5 8867.5)" fill="#0abb98" opacity="0"/>
    <g id="Grupo_14827" data-name="Grupo 14827" transform="translate(17725 -1809.295)">
      <path id="Elipse_2376" data-name="Elipse 2376" d="M17,1A16,16,0,0,0,5.686,28.314,16,16,0,0,0,28.314,5.686,15.9,15.9,0,0,0,17,1m0-1A17,17,0,1,1,0,17,17,17,0,0,1,17,0Z" transform="translate(-17249 10683.295)" fill="#fff"/>
      <path id="Icon_feather-twitter" data-name="Icon feather-twitter" d="M19.762,4.493a9.048,9.048,0,0,1-2.606,1.27,3.719,3.719,0,0,0-6.524,2.49v.83A8.849,8.849,0,0,1,3.16,5.323s-3.32,7.471,4.15,10.791A9.662,9.662,0,0,1,1.5,17.774c7.471,4.15,16.6,0,16.6-9.546a3.735,3.735,0,0,0-.066-.689A6.408,6.408,0,0,0,19.762,4.493Z" transform="translate(-17242.307 10688.311)" fill="#fff"/>
    </g>
  </g>
</svg>
